<?xml version="1.0" encoding="UTF-8" standalone="no"?>
<!-- Created with Inkscape (http://www.inkscape.org/) -->

<svg
   xmlns:dc="http://purl.org/dc/elements/1.1/"
   xmlns:cc="http://creativecommons.org/ns#"
   xmlns:rdf="http://www.w3.org/1999/02/22-rdf-syntax-ns#"
   xmlns:svg="http://www.w3.org/2000/svg"
   xmlns="http://www.w3.org/2000/svg"
   xmlns:sodipodi="http://sodipodi.sourceforge.net/DTD/sodipodi-0.dtd"
   xmlns:inkscape="http://www.inkscape.org/namespaces/inkscape"
   width="60"
   height="59.9995"
   id="svg2"
   version="1.1"
   inkscape:version="0.48.5 r10040"
   sodipodi:docname="anfisbena_logo_lucacorsato.svg"
   inkscape:export-filename="/Users/lucacorsato/Documents/osd/website/meme/source/images/anfisbena_logo_lucacorsato.png"
   inkscape:export-xdpi="90"
   inkscape:export-ydpi="90">
  <defs
     id="defs4" />
  <sodipodi:namedview
     id="base"
     pagecolor="#ffffff"
     bordercolor="#666666"
     borderopacity="1.0"
     inkscape:pageopacity="0.0"
     inkscape:pageshadow="2"
     inkscape:zoom="1.979899"
     inkscape:cx="31.548134"
     inkscape:cy="-5.2798455"
     inkscape:document-units="px"
     inkscape:current-layer="layer1"
     showgrid="false"
     fit-margin-top="0"
     fit-margin-left="0"
     fit-margin-right="0"
     fit-margin-bottom="0"
     inkscape:window-width="1440"
     inkscape:window-height="851"
     inkscape:window-x="0"
     inkscape:window-y="0"
     inkscape:window-maximized="1" />
  <metadata
     id="metadata7">
    <rdf:RDF>
      <cc:Work
         rdf:about="">
        <dc:format>image/svg+xml</dc:format>
        <dc:type
           rdf:resource="http://purl.org/dc/dcmitype/StillImage" />
        <dc:title></dc:title>
      </cc:Work>
    </rdf:RDF>
  </metadata>
  <g
     inkscape:label="Livello 1"
     inkscape:groupmode="layer"
     id="layer1"
     transform="translate(0,-992.36217)">
    <path
       style="fill:#f9f9f9"
       d="m 25.692693,1052.3518 c -0.220633,-0.013 -0.599722,-0.063 -0.842419,-0.1118 -0.242697,-0.049 -0.748149,-0.1203 -1.123226,-0.1598 -1.270143,-0.1336 -2.763736,-0.418 -3.563446,-0.6784 -0.261017,-0.085 -0.558113,-0.1546 -0.660216,-0.1546 -0.244809,0 -1.171695,-0.3006 -2.441125,-0.7917 -0.157558,-0.061 -0.49601,-0.2068 -0.752114,-0.324 -0.256104,-0.1173 -0.512538,-0.2132 -0.569852,-0.2132 -0.05731,0 -0.206262,-0.088 -0.330996,-0.195 -0.124734,-0.1073 -0.3351,-0.2217 -0.46748,-0.2543 -0.24416,-0.06 -0.955396,-0.4181 -2.406912,-1.2116 -0.960609,-0.525 -2.251314,-1.392 -2.521186,-1.6933 -0.106977,-0.1195 -0.255317,-0.2172 -0.3296437,-0.2172 -0.141186,0 -1.521728,-1.2057 -1.521728,-1.3291 0,-0.039 -0.1822733,-0.2136 -0.405052,-0.3882 -1.1115404,-0.8714 -1.9117862,-1.7736 -2.1674194,-2.4436 -0.045279,-0.1187 -0.279277,-0.3918 -0.5199952,-0.6069 -0.3039138,-0.2717 -0.4376708,-0.4522 -0.4376708,-0.5909 0,-0.1242 -0.1362816,-0.3448 -0.3610372,-0.5842 -0.19857,-0.2115 -0.3611874,-0.4278 -0.3613724,-0.4808 -5.1e-4,-0.14 -0.3434332,-0.8174 -0.5790496,-1.1438 -0.1116825,-0.1546 -0.2467338,-0.4223 -0.300114,-0.5948 -0.053381,-0.1724 -0.1767336,-0.4154 -0.2741178,-0.5398 -0.3218332,-0.4114 -0.4509909,-0.6743 -0.4509909,-0.9182 0,-0.1325 -0.078372,-0.344 -0.1741594,-0.4701 -0.1669475,-0.2197 -0.5421969,-1.2121 -0.7225911,-1.9111 -0.04716,-0.1827 -0.1535135,-0.4858 -0.2363409,-0.6735 -0.082828,-0.1877 -0.1505949,-0.4157 -0.1505949,-0.5067 0,-0.091 -0.031892,-0.2738 -0.0708711,-0.4062 -0.105318,-0.3578 -0.2307326,-0.8497 -0.34488259,-1.3525 -0.072204,-0.3181 -0.1654003,-0.4962 -0.322602,-0.6165 -0.13581858,-0.104 -0.19524001,-0.2037 -0.15409458,-0.2587 0.13247572,-0.177 0.16119428,-0.4994 0.079584,-0.8933 -0.0457011,-0.2206 -0.0965417,-1.0083 -0.11297914,-1.7504 -0.01643827,-0.7422 -0.05233543,-1.6598 -0.07977172,-2.0393 -0.03175457,-0.4392 -0.016469997,-0.7863 0.04205314,-0.9551 0.05056458,-0.1459 0.108516,-0.583 0.12878058,-0.9712 0.0572186,-1.0964 0.1792423,-2.1664 0.25906114,-2.2716 0.0398383,-0.053 0.0962194,-0.2637 0.12529116,-0.4692 0.0507214,-0.3587 0.24597341,-1.0724 0.65899801,-2.4089 0.1059214,-0.3428 0.1925845,-0.6859 0.1925845,-0.7625 0,-0.077 0.1074626,-0.3796 0.2388052,-0.6734 0.1313426,-0.2937 0.2939846,-0.7542 0.3614246,-1.0232 0.067441,-0.269 0.1916048,-0.5861 0.2759194,-0.7047 0.084315,-0.1185 0.1713797,-0.3343 0.1934768,-0.4794 0.022096,-0.1452 0.1515078,-0.3952 0.2875792,-0.5556 0.1360714,-0.1605 0.247403,-0.3473 0.247403,-0.4153 0,-0.4341 0.748651,-1.8598 1.255615,-2.3911 0.1240638,-0.13 0.2696486,-0.3449 0.3235236,-0.4775 0.053875,-0.1327 0.1322904,-0.2412 0.1742562,-0.2412 0.041967,0 0.2086758,-0.2065 0.3704658,-0.4588 0.16179,-0.2523 0.3728964,-0.5442 0.4691262,-0.6487 0.096229,-0.1044 0.3193772,-0.3717 0.4958838,-0.5939 0.8151221,-1.0261 1.7105861,-1.9419 2.2362574,-2.287 0.1998327,-0.1312 0.5791574,-0.444 0.842946,-0.695 0.2637867,-0.2511 0.6175747,-0.5508 0.7861954,-0.666 0.1686203,-0.1153 0.4509963,-0.3222 0.6275043,-0.4598 0.176507,-0.1377 0.41118,-0.2909 0.521497,-0.3406 0.110317,-0.05 0.272783,-0.1592 0.361037,-0.2433 0.260971,-0.2486 1.830588,-1.1513 2.463199,-1.4166 0.322056,-0.135 0.677774,-0.2997 0.790483,-0.3658 0.2667,-0.1565 2.588538,-0.9344 3.00429,-1.0065 0.176506,-0.031 0.645854,-0.1601 1.042995,-0.2876 0.397141,-0.1275 0.956748,-0.2879 1.243572,-0.3564 0.286823,-0.068 0.702016,-0.1717 0.92265,-0.2294 0.220633,-0.058 0.599722,-0.1145 0.842419,-0.1263 2.22153,-0.1082 2.487142,-0.1748 2.487142,-0.6237 0,-0.80722 0.35291,-1.14156 1.697884,-1.6085 1.241622,-0.43106 2.016078,-0.9382 2.556879,-1.67434 0.954846,-1.29972 2.278984,-1.68829 4.650811,-1.36476 0.524577,0.0716 0.623919,0.0638 0.774804,-0.0604 0.833808,-0.68652 1.117761,-0.87576 1.71234,-1.1412 0.625551,-0.27927 0.758274,-0.30733 1.604607,-0.33926 1.098495,-0.0414 1.463623,-0.16052 2.126107,-0.69341 1.09547,-0.88118 2.398646,-1.1703 4.071692,-0.90333 0.575808,0.0919 0.90411,0.31846 0.46144,0.31846 -0.241138,0 -1.840612,0.56476 -2.13759,0.75477 -0.251908,0.16117 -0.868276,0.85593 -1.209328,1.36313 -0.09215,0.13705 -0.351614,0.3598 -0.57659,0.49502 -0.988432,0.59408 0.539006,1.32665 2.078444,0.99684 1.758862,-0.37682 2.662708,-0.17572 3.60789,0.80274 0.307698,0.31853 0.277632,0.4595 -0.08683,0.40715 -0.850286,-0.12212 -1.546038,-0.0404 -2.398182,0.28173 -0.463332,0.17514 -1.023534,0.38362 -1.2449,0.46328 -0.221362,0.0797 -0.5824,0.21992 -0.802302,0.31166 -0.219904,0.0917 -0.616446,0.23278 -0.881208,0.3134 -1.204888,0.36695 -1.27405,0.43852 -0.707722,0.73234 0.212742,0.11038 0.549268,0.28506 0.747838,0.38818 0.19857,0.1031 0.54938,0.3119 0.779576,0.464 0.230196,0.1521 0.59661,0.3699 0.814254,0.4841 0.490224,0.2572 0.966088,0.5843 1.896192,1.3037 0.751432,0.5812 0.78025,0.6057 1.490832,1.2643 0.785538,0.7281 0.889908,0.8358 1.507768,1.5563 0.9657,1.1261 1.052912,1.243 1.387752,1.86 0.173904,0.3205 0.361904,0.6201 0.417774,0.6658 0.05587,0.046 0.219546,0.3073 0.363726,0.5814 0.144176,0.274 0.31167,0.5557 0.372204,0.6259 0.06053,0.07 0.182336,0.2968 0.270672,0.5035 0.08834,0.2067 0.235442,0.446 0.326898,0.5317 0.09146,0.086 0.235622,0.318 0.32037,0.5164 0.08475,0.1983 0.31385,0.5744 0.50912,0.8357 0.391506,0.5239 1.016566,1.8331 1.138834,2.3854 0.03035,0.137 0.172578,0.5108 0.316076,0.8305 0.745818,1.6619 1.083312,3.5591 1.211574,6.8106 0.02703,0.6852 0.05931,1.3766 0.07172,1.5364 0.03928,0.5058 -0.110688,3.7611 -0.19323,4.1944 -0.04351,0.2284 -0.136498,0.6582 -0.206622,0.9551 -0.07013,0.2969 -0.174646,0.8389 -0.232266,1.2043 -0.1132,0.7179 -0.301128,1.5814 -0.488088,2.2425 -0.181618,0.6423 -0.285312,1.0394 -0.401158,1.5365 -0.101508,0.4356 -0.463998,1.4188 -0.719628,1.9518 -0.14232,0.2968 -0.542372,1.8224 -0.555378,2.1179 -0.02724,0.6191 2.207256,-0.2244 3.005728,-1.1347 0.498722,-0.5685 1.357692,-2.164 1.357692,-2.5218 0,-0.08 0.190494,-0.6034 0.407312,-1.1192 0.0384,-0.091 0.17385,-0.4651 0.300994,-0.8305 0.77603,-2.2306 2.107608,-2.8991 2.922138,-1.467 0.07723,0.1357 0.335958,0.3611 0.574938,0.5007 0.730458,0.4268 0.869634,0.8877 0.499532,1.6542 -0.104028,0.2155 -0.211334,0.5941 -0.238454,0.8413 -0.06813,0.6211 -0.345922,1.1567 -0.772296,1.489 -0.362572,0.2827 -0.477036,0.2976 -1.02001,0.1332 -0.435338,-0.1318 -0.901332,0.8619 -0.893198,1.9047 0.01209,1.5498 -0.195616,1.8392 -1.16406,1.6222 -0.63184,-0.1417 -0.824622,-0.068 -1.752114,0.6682 -0.116914,0.093 -0.279382,0.1934 -0.361036,0.2235 -0.08166,0.03 -0.202626,0.1013 -0.268814,0.1581 -0.06619,0.057 -0.390834,0.2452 -0.721434,0.4186 -0.3306,0.1733 -0.752626,0.4295 -0.937834,0.5692 -0.18521,0.1398 -0.60069,0.4183 -0.923288,0.6191 -0.3226,0.2008 -0.66232,0.4129 -0.75493,0.4713 -0.09504,0.06 -0.213786,0.274 -0.272624,0.4916 -0.126456,0.4676 -0.522028,0.79 -0.969214,0.79 -0.393392,0 -0.50973,0.1655 -0.671414,0.9551 -0.07483,0.3655 -0.188778,0.8139 -0.253224,0.9967 -0.2016,0.5716 -0.333174,1.9372 -0.256822,2.6656 0.125308,1.1954 0.265146,1.2752 0.992502,0.5666 0.46407,-0.452 1.52215,-1.2238 1.995592,-1.4556 0.129774,-0.063 0.372648,-0.3211 0.539724,-0.5723 0.970128,-1.4589 2.674688,-0.7116 1.979546,0.8678 -0.0762,0.1731 -0.06914,0.2385 0.03911,0.3623 0.320214,0.3663 0.325826,0.6213 0.03087,1.4022 -0.151932,0.4023 -0.300774,0.8379 -0.330759,0.9681 -0.201909,0.8768 -1.136355,1.1827 -2.306787,0.7553 -0.38814,-0.1418 -0.299367,-0.1809 -2.00631,0.8829 -2.487144,1.55 -2.804772,1.3453 -3.268521,-2.1063 -0.07314,-0.5444 -0.182958,-1.0212 -0.670389,-2.9111 -0.118218,-0.4584 -0.276363,-0.4785 -0.615174,-0.079 -0.338757,0.4 -1.609752,1.5514 -1.869762,1.6938 -0.09993,0.055 -0.362214,0.2568 -0.582849,0.449 -0.220632,0.1923 -0.48666,0.3958 -0.591174,0.4522 -0.104511,0.057 -0.400902,0.2686 -0.658647,0.4715 -0.687132,0.5409 -4.063548,2.1893 -4.484823,2.1894 -0.166332,10e-5 -0.952407,0.3139 -1.156083,0.4616 -0.09082,0.066 -0.278076,0.1197 -0.416118,0.1197 -0.138042,0 -0.355656,0.033 -0.483588,0.075 -0.214248,0.069 -0.502254,0.1204 -1.897044,0.3408 -0.275982,0.043 -0.916974,0.1 -1.424433,0.1252 -0.507458,0.025 -1.030962,0.063 -1.163341,0.084 -0.297131,0.048 -2.981077,0.097 -3.530138,0.064 z m 0.100288,-0.6882 c 0.21065,0 0.07726,-0.1984 -0.610942,-0.8979 -1.228179,-1.2482 -2.336208,-3.2078 -1.9526,-3.4533 0.116809,-0.075 0.221162,0.067 0.527138,0.7141 0.166714,0.3527 0.40694,0.7565 0.533836,0.8971 0.126896,0.1406 0.25444,0.3192 0.283433,0.3968 0.374921,1.0037 2.512667,2.306 3.754899,2.2876 1.20675,-0.018 1.290888,-0.1588 0.372588,-0.6236 -1.23293,-0.624 -3.110883,-2.7761 -3.032065,-3.4747 0.03899,-0.3456 0.185835,-0.2394 0.631668,0.4568 0.819519,1.2797 1.094259,1.5529 2.232613,2.2203 1.10094,0.6454 1.478352,0.8022 2.133429,0.8859 0.353013,0.045 0.784803,0.144 0.959529,0.2197 0.43125,0.1869 2.209572,-0.1192 2.209572,-0.3804 0,-0.039 -0.561267,-0.355 -1.247262,-0.7036 -1.631904,-0.8292 -3.507082,-2.6344 -3.390038,-3.2636 0.04547,-0.2444 0.249059,-0.1542 0.502016,0.2222 0.240186,0.3575 0.553131,0.6953 1.306839,1.4106 0.894924,0.8495 3.340767,1.8467 4.555497,1.8575 0.190986,0 1.415169,-0.5823 1.500726,-0.7159 0.06917,-0.108 -0.151248,-0.2992 -0.34491,-0.2992 -0.182532,0 -1.982238,-0.9502 -2.198982,-1.161 -0.095,-0.092 -0.211242,-0.168 -0.258315,-0.168 -0.371979,0 -1.962213,-2.0392 -1.84236,-2.3625 0.08219,-0.2217 0.257043,-0.1419 0.399492,0.1824 0.199446,0.454 0.419916,0.6795 1.245459,1.2741 2.823414,2.033 4.338354,2.2726 6.01659,0.9514 0.584182,-0.46 0.568644,-0.6267 -0.05839,-0.6267 -0.455572,0 -1.432906,-0.2715 -1.791036,-0.4975 -0.144904,-0.091 -0.368364,-0.1665 -0.496578,-0.1666 -0.508714,0 -2.05345,-1.5845 -2.05345,-2.1053 0,-0.3126 0.114951,-0.2741 0.375792,0.1259 0.394455,0.6048 1.91244,1.4791 3.074116,1.7705 0.286824,0.072 0.58419,0.167 0.660812,0.2112 0.54864,0.3165 1.91604,0.061 2.517184,-0.471 0.644966,-0.5704 0.586674,-0.6771 -0.369934,-0.677 -1.165472,10e-5 -3.289446,-1.4251 -3.289446,-2.2071 0,-0.2194 0.03375,-0.1974 0.6082,0.3973 0.334508,0.3463 0.643134,0.6296 0.685832,0.6296 0.0427,0 0.229332,0.076 0.414742,0.1696 1.003974,0.505 3.01365,0.6907 3.400746,0.3143 0.515456,-0.5014 -0.06233,-1.2534 -0.977652,-1.2725 -0.888172,-0.019 -1.965646,-0.6177 -1.965646,-1.0929 0,-0.162 0.113248,-0.1374 0.28824,0.063 0.322528,0.3689 1.386894,0.673 1.716532,0.4904 0.359702,-0.1993 -0.01068,-0.8518 -0.46324,-0.8161 -0.292914,0.023 -0.739226,-0.1676 -0.739226,-0.3158 0,-0.083 0.118368,-0.1145 0.43191,-0.1145 0.530928,0 0.554208,-0.057 0.381884,-0.9327 -0.119552,-0.6076 -0.118334,-0.6434 0.02757,-0.8102 0.342918,-0.3923 0.760302,0.018 0.811512,0.7981 0.08654,1.3179 0.508959,2.4891 1.167633,3.2373 0.193215,0.2195 0.48453,1.0439 0.804105,2.2756 0.23787,0.9167 0.276804,1.1168 0.45264,2.3255 0.04319,0.2969 0.11379,0.6333 0.156882,0.7475 0.04309,0.1142 0.105036,0.4096 0.137652,0.6564 0.150033,1.1353 0.476202,1.4155 1.099119,0.944 0.234309,-0.1772 0.707097,-0.4884 1.050642,-0.6914 0.343545,-0.203 0.883734,-0.5365 1.20042,-0.741 0.635469,-0.4104 0.961773,-0.4608 1.427283,-0.2204 0.861582,0.445 2.034192,-0.3751 1.514454,-1.0591 -0.126261,-0.1661 -0.224541,-0.2195 -0.345513,-0.1873 -0.562785,0.1495 -1.648296,0.5808 -1.905651,0.757 -0.304596,0.2087 -0.549978,0.206 -0.549978,-0.01 0,-0.1486 0.475947,-0.4508 1.080894,-0.6862 0.263538,-0.1026 0.652197,-0.2968 0.863682,-0.4315 0.429069,-0.2733 0.571476,-0.2931 0.86349,-0.1203 0.418224,0.2475 0.685197,0.062 0.48054,-0.3338 -0.244839,-0.4736 -0.858003,-0.4355 -1.965141,0.1222 -0.546807,0.2755 -0.788619,0.3606 -0.815802,0.2873 -0.06519,-0.1759 0.114504,-0.4211 0.391863,-0.5348 0.448029,-0.1836 0.711714,-0.4961 0.418662,-0.4961 -0.153366,0 -1.311027,0.7104 -1.478646,0.9072 -1.668552,1.9604 -2.676198,0.9112 -2.187315,-2.2776 0.20559,-1.3409 0.280749,-1.747 0.347514,-1.8777 0.09687,-0.1897 0.452301,-3.9495 0.511893,-5.4149 0.03897,-0.9584 0.0865,-1.3247 0.215529,-1.6611 0.160812,-0.4192 0.175263,-1.1884 0.05023,-2.674 -0.0144,-0.1711 0.01509,-0.2491 0.0941,-0.2491 0.122817,0 0.397434,0.6968 0.403089,1.0228 0.0018,0.1058 0.03817,0.2598 0.08074,0.3421 0.05185,0.1003 0.02439,0.6675 -0.08317,1.7179 -0.296676,2.8974 -0.288051,3.1624 0.0915,2.8108 0.409806,-0.3796 0.957255,-1.6338 0.957255,-2.193 0,-0.1361 0.08719,-0.6134 0.193758,-1.0605 0.527769,-2.2144 0.755856,-6.1447 0.524337,-9.0354 -0.03659,-0.4568 -0.08735,-1.0922 -0.112821,-1.4119 -0.195483,-2.4547 -0.871509,-5.1492 -1.719138,-6.8521 -0.238737,-0.4797 -0.485787,-0.9753 -0.548997,-1.1015 -0.308379,-0.6156 -0.003,-0.6825 0.385752,-0.085 1.00485,1.5459 2.097165,4.8639 2.277081,6.9168 0.02601,0.2969 0.06453,0.6333 0.08557,0.7475 0.02103,0.1142 0.05376,0.5066 0.07271,0.8721 0.01896,0.3654 0.07336,1.153 0.120912,1.7501 0.07464,0.9373 0.06575,2.1868 -0.03217,4.5206 -0.04096,0.9762 0.0841,0.9946 0.424024,0.062 0.321728,-0.8824 0.667638,-2.2605 0.816974,-3.2548 0.03474,-0.2312 0.117006,-0.6447 0.18282,-0.9188 0.201064,-0.8373 0.316032,-1.856 0.342144,-3.0315 0.0243,-1.0943 0.01158,-1.2217 -0.373176,-3.7375 -0.251118,-1.6419 -1.148988,-4.3132 -1.968078,-5.8554 -0.07279,-0.137 -0.258282,-0.51 -0.412212,-0.8288 -0.15393,-0.3188 -0.55956,-1.0103 -0.901404,-1.5365 -0.341844,-0.5263 -0.753788,-1.1624 -0.915432,-1.4137 -0.552936,-0.8594 -0.826562,-1.2287 -1.539782,-2.0782 -0.392598,-0.4676 -0.951922,-1.1723 -1.242948,-1.5662 -0.571608,-0.7735 -1.327836,-1.5446 -2.05939,-2.1 -0.253124,-0.1922 -0.622698,-0.4886 -0.821268,-0.6587 -0.457986,-0.3923 -1.244666,-0.8372 -1.965644,-1.1116 -0.308886,-0.1175 -0.687976,-0.2818 -0.842418,-0.3651 -0.76651,-0.4133 -2.967736,-1.0426 -3.467602,-0.9913 -0.412569,0.042 -0.343059,0.2052 0.202647,0.4748 0.566292,0.2798 1.583799,0.9695 1.683379,1.141 0.03473,0.06 0.2333,0.2295 0.441266,0.3771 0.38853,0.2756 1.032924,0.9251 1.558324,1.5707 0.163716,0.2011 0.454208,0.5526 0.645536,0.781 0.356544,0.4256 0.989358,1.5161 1.180864,2.0349 0.05902,0.1598 0.196304,0.4962 0.305078,0.7474 0.670224,1.5481 0.917944,2.7904 1.167586,5.8554 0.114854,1.4102 0.08002,1.8308 -0.306202,3.696 -0.186786,0.9021 -0.186842,0.9519 -0.0012,0.9536 0.144882,0 0.165492,0.076 0.212274,0.7635 0.06136,0.9023 0.230262,1.4435 0.858982,2.7526 0.256364,0.5337 0.56463,1.2387 0.685028,1.5665 0.120402,0.3279 0.270918,0.6408 0.334482,0.6954 0.06357,0.055 0.116574,0.1414 0.117804,0.193 0.0012,0.051 0.109536,0.2404 0.24069,0.4198 0.131154,0.1795 0.238458,0.3922 0.238458,0.4727 0,0.081 0.03805,0.1708 0.08454,0.2005 0.08816,0.057 0.490846,0.9244 0.595932,1.2846 0.03332,0.1142 0.110278,0.2664 0.171012,0.3383 0.316606,0.3745 0.49584,2.087 0.347304,3.3183 -0.163694,1.357 -1.623896,3.3851 -3.866448,5.3703 -0.341982,0.3027 -0.621786,0.5809 -0.621786,0.618 0,0.1333 -1.426632,1.5512 -1.693284,1.6829 -0.149798,0.074 -0.47093,0.3254 -0.713628,0.5588 -0.244898,0.2354 -0.655484,0.5198 -0.92265,0.6388 -0.264758,0.1181 -0.617858,0.302 -0.784664,0.4086 -0.342664,0.2192 -0.64011,0.2455 -1.221094,0.1081 -1.279509,-0.3026 -1.119876,-0.3203 -2.167146,0.2403 -0.518757,0.2776 -1.026813,0.5048 -1.129014,0.5048 -0.102201,0 -0.34107,0.104 -0.53082,0.231 -0.189753,0.127 -0.471366,0.2784 -0.625809,0.3363 -0.154443,0.058 -0.659895,0.2493 -1.123227,0.4253 -1.21158,0.4604 -1.172613,0.4534 -1.436529,0.2588 -0.12813,-0.094 -0.299597,-0.1725 -0.381039,-0.1736 -0.08144,0 -0.238338,-0.075 -0.348654,-0.1642 -0.23524,-0.1905 -0.541896,-0.2119 -0.764394,-0.053 -0.08704,0.062 -0.30267,0.1601 -0.479178,0.2181 -0.176506,0.058 -0.378426,0.1572 -0.448708,0.2205 -0.230288,0.2075 -1.138757,0.5283 -1.496018,0.5283 -0.192394,0 -0.460212,0.059 -0.595152,0.1314 -0.28382,0.1519 -1.150897,-0.01 -1.656746,-0.3072 -0.145934,-0.086 -0.326962,-0.1564 -0.402284,-0.1564 -0.162065,0 -1.328092,0.4474 -1.659063,0.6365 -0.08825,0.051 -0.322927,0.1186 -0.521497,0.1514 -0.198571,0.033 -0.5773,0.1341 -0.841622,0.2249 -1.217586,0.4184 -1.507728,0.377 -2.20898,-0.3154 -0.462166,-0.4564 -0.476352,-0.4634 -0.81592,-0.4016 -0.190066,0.035 -0.463143,0.055 -0.606837,0.047 -0.143695,-0.01 -0.328383,0.021 -0.41042,0.067 -0.08204,0.045 -0.485737,0.125 -0.897113,0.1768 -0.729664,0.092 -0.818331,0.085 -1.902725,-0.1376 -0.10014,-0.021 -0.367379,-0.2253 -0.593864,-0.4549 -0.619416,-0.6278 -0.742059,-0.5692 -0.771762,0.369 -0.05059,1.5982 0.929373,3.2969 2.309275,4.0028 0.866624,0.4434 0.970696,0.3812 0.5644,-0.3375 -0.709801,-1.2555 -1.096086,-2.5332 -0.765891,-2.5332 0.06535,0 0.143641,0.1028 0.173982,0.2284 0.352827,1.4609 2.368459,3.9244 3.210843,3.9244 0.07197,0 0.32166,0.097 0.554874,0.2147 0.82724,0.419 0.939354,0.1738 0.274582,-0.6006 -0.75163,-0.8757 -1.386228,-2.279 -1.458796,-3.226 -0.04329,-0.5648 0.202219,-0.4903 0.365166,0.1108 0.07352,0.2713 0.200398,0.5814 0.281947,0.689 0.08155,0.1078 0.173439,0.3152 0.204197,0.461 0.08187,0.388 0.680906,1.1933 1.489364,2.002 0.22038,0.2204 1.124611,0.8428 1.54103,1.0608 0.145286,0.076 0.336362,0.2062 0.424616,0.2892 0.195616,0.1841 0.955939,0.3077 1.03881,0.1689 0.03315,-0.055 -0.169796,-0.3295 -0.491159,-0.6629 -0.864841,-0.8974 -1.947771,-2.9658 -1.950442,-3.7253 -0.0012,-0.3532 0.126497,-0.4813 0.207012,-0.2077 0.325699,1.1072 1.893237,3.3102 2.762985,3.8832 0.155935,0.1027 0.481222,0.3738 0.722856,0.6024 0.44407,0.4202 1.1334,0.6522 1.641226,0.5523 0.08825,-0.017 0.205592,-0.032 0.26075,-0.033 z m 19.80764,-7.0485 c -0.787836,-0.9012 -1.528212,-5.2667 -0.973976,-5.7428 0.161844,-0.1391 0.361322,0.1269 0.362306,0.4831 0.0066,2.3678 0.147942,3.2895 0.68385,4.4583 0.341124,0.744 0.297834,1.2247 -0.07218,0.8014 z m -33.33425,2.3965 c -0.01531,-0.1598 -0.06753,-0.3653 -0.116032,-0.4568 -0.05127,-0.097 -0.09158,-0.664 -0.0963,-1.3554 -0.0089,-1.2992 0.0011,-1.2721 -0.522008,-1.4278 -0.641818,-0.1909 -1.405671,-1.387 -1.036596,-1.6231 0.04765,-0.031 0.471864,-0.07 0.942707,-0.087 0.859321,-0.032 1.013985,-0.055 2.42057,-0.3572 0.419204,-0.09 0.989994,-0.2118 1.268423,-0.2703 0.847328,-0.1784 0.850857,-0.3303 0.01527,-0.6573 -0.396794,-0.1552 -1.057716,-0.5173 -1.845299,-1.0109 -0.768852,-0.4819 -1.524378,-1.0111 -1.524378,-1.0679 0,-0.035 -0.07036,-0.087 -0.156356,-0.115 -0.086,-0.028 -0.181348,-0.1336 -0.211892,-0.234 -0.03055,-0.1004 -0.438557,-0.5938 -0.906696,-1.0962 -0.468139,-0.5026 -0.9661427,-1.0818 -1.1066747,-1.2874 -0.140532,-0.2056 -0.4666473,-0.6728 -0.7247006,-1.0382 -0.2580527,-0.3654 -0.5729614,-0.8887 -0.6997967,-1.1628 -0.1268353,-0.274 -0.292134,-0.5918 -0.3673307,-0.706 -0.075198,-0.1142 -0.1833106,-0.3571 -0.2402546,-0.5398 -0.05694,-0.1827 -0.1498594,-0.407 -0.206484,-0.4983 -0.05662,-0.091 -0.1474,-0.353 -0.201724,-0.5814 -0.054327,-0.2284 -0.1830414,-0.5547 -0.2860356,-0.7251 -0.1029942,-0.1704 -0.1872615,-0.389 -0.1872615,-0.4858 0,-0.2556 -0.237312,-0.7332 -0.4126305,-0.8303 -0.118542,-0.066 -0.133548,-0.1175 -0.069772,-0.2409 0.1246149,-0.241 0.096591,-0.8141 -0.051232,-1.0476 -0.1178922,-0.1863 -0.1229169,-0.3277 -0.045622,-1.2842 0.047773,-0.5911 0.057546,-1.1806 0.021717,-1.3099 -0.06069,-0.2191 -0.1620856,-1.2003 -0.2032054,-1.9665 -0.00981,-0.1827 0.016998,-0.4256 0.059565,-0.5398 0.042567,-0.1142 0.09101,-0.5033 0.1076502,-0.8646 0.017676,-0.3838 0.078626,-0.7334 0.1465902,-0.8408 0.1363329,-0.2154 0.3477111,-1.0031 0.4895691,-1.8245 0.055227,-0.3197 0.1973769,-0.843 0.3158889,-1.1627 0.118514,-0.3198 0.2691753,-0.8057 0.3348033,-1.0798 0.065627,-0.2741 0.2115427,-0.7039 0.3242554,-0.9551 0.4473586,-0.9972 0.5547,-1.217 0.750306,-1.5365 0.1118633,-0.1828 0.3067846,-0.5378 0.4331573,-0.7891 0.242738,-0.4826 1.5323399,-2.3039 1.8838739,-2.6606 0.114078,-0.1157 0.318189,-0.34 0.453578,-0.4983 0.809318,-0.9464 3.209803,-2.965 4.046163,-3.4024 0.19857,-0.1039 0.511957,-0.2959 0.696414,-0.4267 0.184457,-0.1308 0.369133,-0.2378 0.41039,-0.2378 0.04126,0 0.161115,-0.069 0.266351,-0.1529 0.105236,-0.084 0.263546,-0.1744 0.351799,-0.2006 0.08825,-0.026 0.359031,-0.1271 0.601728,-0.2242 0.703601,-0.2812 1.269038,-0.473 2.085991,-0.7075 0.419203,-0.1204 0.953087,-0.2915 1.186408,-0.3804 0.23332,-0.089 0.540201,-0.1617 0.681958,-0.1619 2.640533,0 4.096997,-1.9404 2.123096,-2.8238 -0.373908,-0.1673 -0.501669,-0.332 -0.257551,-0.332 0.971124,0 1.857506,1.4466 1.441908,2.3533 -0.19569,0.4269 -0.194582,0.4272 1.301602,0.4435 2.096241,0.023 2.562698,-0.8684 1.084295,-2.0716 -0.275793,-0.2245 -0.501441,-0.4717 -0.501441,-0.5494 0,-0.7271 -1.766528,-1.1034 -3.542802,-0.7547 -0.208442,0.041 -0.751185,0.099 -1.206097,0.1293 -0.454913,0.03 -0.887922,0.088 -0.962243,0.1277 -0.07432,0.04 -0.201675,0.073 -0.283012,0.073 -0.560246,0 -0.559093,0.3814 0.0021,0.6778 0.395193,0.2087 0.829636,0.6903 0.943882,1.0464 0.155211,0.4837 0.03238,0.4723 -0.297411,-0.027 -0.566556,-0.8587 -2.104916,-1.3228 -3.28687,-0.9916 -0.737628,0.2067 -0.759336,0.3327 -0.128756,0.7472 1.117192,0.7345 1.551678,1.1441 1.390426,1.3111 -0.09175,0.095 -0.228308,0.02 -0.597697,-0.3291 -1.105529,-1.0443 -2.974307,-1.2565 -3.97728,-0.4517 -0.238493,0.1914 -0.177,0.3074 0.201927,0.381 0.160845,0.031 0.513693,0.1943 0.784104,0.3624 0.270412,0.1681 0.59538,0.3613 0.722151,0.4294 0.253471,0.1362 0.502705,0.4717 0.416623,0.5608 -0.03005,0.031 -0.125196,0.011 -0.211442,-0.044 -0.179412,-0.1152 -0.245594,-0.1517 -0.959117,-0.5295 -0.969369,-0.5133 -3.490023,-0.359 -3.490023,0.2137 0,0.127 0.131368,0.1942 0.681958,0.3488 1.06674,0.2997 2.187192,0.952 1.988457,1.1577 -0.04373,0.045 -0.751893,-0.2607 -1.301025,-0.5621 -0.54492,-0.2992 -2.748891,-0.114 -3.305324,0.2776 -0.6549496,0.461 -0.5504456,0.6423 0.491786,0.8535 1.019986,0.2066 2.145114,0.9082 2.015823,1.257 -0.04361,0.1176 -0.07903,0.1118 -0.296793,-0.049 -0.844004,-0.6221 -1.968958,-0.922 -2.8374869,-0.7563 -0.2775573,0.053 -0.6560907,0.096 -0.8411827,0.096 -0.491164,0 -1.54863,1.0645 -1.428392,1.4379 0.022293,0.069 0.381614,0.098 1.2291894,0.098 1.343756,3e-4 2.2817262,0.3079 2.3449412,0.7686 0.0308,0.2245 -0.0073,0.2304 -0.282297,0.044 -0.6374256,-0.4323 -2.1969522,-0.5124 -3.4325949,-0.1762 -1.1503499,0.313 -2.2798509,1.6035 -1.2649721,1.4452 1.1514828,-0.1795 1.5080388,-0.1939 2.0267301,-0.082 0.9569273,0.2065 1.684284,0.65 1.4551767,0.8871 -0.075299,0.078 -0.1270507,0.077 -0.234784,0 -0.896378,-0.6721 -3.0678636,-0.5932 -3.9622682,0.144 -0.2249406,0.1854 -0.4369842,0.3371 -0.4712074,0.3371 -0.1722318,0 -1.1202198,1.5716 -1.1202531,1.8572 -2.4e-5,0.2029 0.3523653,0.1401 1.0577811,-0.1884 0.7123518,-0.3317 1.5220312,-0.5267 1.8904182,-0.4553 0.3710727,0.072 0.7946074,0.2504 0.8619754,0.3633 0.094476,0.1582 -0.0397,0.2561 -0.216718,0.158 -0.8812392,-0.4882 -4.2116778,1.0695 -4.4783298,2.0947 -0.1210552,0.4654 -0.022771,0.5484 0.3907293,0.33 0.1800018,-0.095 0.4027131,-0.1729 0.4949151,-0.1729 0.092203,0 0.2697748,-0.055 0.3946038,-0.1215 0.43809,-0.2345 1.3126662,-0.1775 2.111809,0.1377 0.3272082,0.1291 0.2952342,0.3511 -0.040115,0.2785 -1.2616716,-0.2729 -2.204381,-0.075 -3.251275,0.6816 -0.8082531,0.5843 -0.9554194,0.8467 -1.2823576,2.2857 -0.1834304,0.8074 -0.086268,0.8476 0.591612,0.2442 1.1662199,-1.0382 2.380841,-1.6368 2.7235158,-1.3424 0.1841622,0.1582 0.1364244,0.2335 -0.1855278,0.2925 -1.1778943,0.2157 -3.071958,2.0533 -3.6011829,3.4938 -0.40064917,1.0905 -0.2875894,1.2362 0.4257274,0.5487 0.8862231,-0.8542 1.7854096,-1.3167 2.3314817,-1.1992 0.4318328,0.093 0.3855548,0.2747 -0.098733,0.388 -0.3716991,0.087 -1.0391502,0.4714 -1.4621383,0.842 -0.098149,0.086 -0.3029494,0.2499 -0.4551137,0.3641 -0.1521643,0.1142 -0.3348883,0.3197 -0.4060534,0.4568 -0.071164,0.137 -0.2177803,0.3987 -0.3258129,0.5814 -0.10803167,0.1827 -0.19701513,0.4462 -0.19774113,0.5855 -6.8667e-4,0.1393 -0.041314,0.2947 -0.0901954,0.3453 -0.1326043,0.1373 -0.18963174,1.1249 -0.0774797,1.3418 0.113946,0.2204 0.1937074,0.1779 0.44780913,-0.2389 0.2521851,-0.4135 1.15338,-1.4108 1.274886,-1.4108 0.051587,0 0.2911474,-0.1322 0.532356,-0.2936 0.3479812,-0.233 0.5048452,-0.2888 0.7594834,-0.27 0.405324,0.03 0.4329172,0.2323 0.045837,0.3361 -1.2363531,0.3317 -3.14620535,2.9507 -3.02525822,4.1485 0.16864456,1.6704 0.42626142,1.9751 0.89343002,1.0569 0.5290405,-1.0397 1.6529897,-2.3201 2.0366975,-2.3201 0.3258865,0 0.3995631,0.1578 0.1623471,0.3478 -0.4378416,0.3506 -0.985266,0.956 -1.0843578,1.1994 -0.058205,0.1429 -0.1582723,0.2806 -0.2223703,0.3061 -0.2349625,0.093 -0.6866597,1.0902 -0.8231889,1.8167 -0.2247514,1.196 0.2782115,3.0125 0.5590758,2.0192 0.4549714,-1.609 1.2172501,-2.748 1.9028116,-2.8432 0.3899968,-0.054 0.4407652,0.1407 0.096532,0.3704 -0.2567564,0.1714 -0.5870829,0.5484 -0.7020165,0.8013 -0.044127,0.097 -0.2299011,0.4382 -0.4128324,0.7579 -0.5009031,0.8756 -0.6087601,1.8496 -0.3534917,3.1922 0.047196,0.2482 0.065433,0.5178 0.040527,0.599 -0.057117,0.1863 0.093141,0.4862 0.2436017,0.4862 0.066233,0 0.131772,-0.113 0.1566308,-0.27 0.023508,-0.1484 0.081774,-0.5128 0.1294792,-0.8098 0.160824,-1.0009 1.1971098,-3.073 1.5369027,-3.073 0.225924,0 0.1800789,0.1488 -0.4245156,1.3783 -0.6832944,1.3894 -0.7959933,2.0245 -0.659832,3.7179 0.1123716,1.3976 0.6639147,1.9793 0.7838487,0.8266 0.089331,-0.8585 0.4242249,-2.2311 0.5762187,-2.3616 0.059629,-0.051 0.1084164,-0.1313 0.1084164,-0.1778 0,-0.1692 0.59844,-0.8917 0.7385598,-0.8917 0.2010915,0 0.1795275,0.1681 -0.064514,0.5029 -0.6943542,0.9528 -0.9581718,3.4304 -0.5142978,4.8302 0.088645,0.2794 0.1611729,0.5934 0.1611729,0.6975 0,0.267 0.3394527,0.6561 0.5124516,0.5873 0.1134522,-0.045 0.1338975,-0.1564 0.120726,-0.6575 -0.035226,-1.3403 0.3141753,-2.8709 0.7481582,-3.2775 0.259664,-0.2432 0.3423413,-0.015 0.1417933,0.3926 -0.2795313,0.5673 -0.4927653,2.2624 -0.3862389,3.0706 0.1031982,0.7828 0.5356236,2.0596 0.7640689,2.2558 0.2314107,0.1988 0.2943953,-0.06 0.3008427,-1.237 0.00901,-1.6455 0.41836,-3.1783 0.8488026,-3.1783 0.185664,0 0.1998754,0.1238 0.048653,0.4239 -0.059933,0.1188 -0.1354834,0.3992 -0.167886,0.6229 -0.0324,0.2237 -0.090024,0.4669 -0.1280494,0.5405 -0.4634546,0.8965 0.080606,3.7434 0.883118,4.6211 0.3859514,0.4221 0.4953087,0.1977 0.3540854,-0.7267 -0.1978507,-1.2951 0.083745,-3.2807 0.4652601,-3.2807 0.117036,0 0.116192,0.031 -0.01935,0.7059 -0.2350618,1.171 0.02008,3.1474 0.48334,3.7442 0.134863,0.1737 0.245205,0.3811 0.245205,0.4609 0,0.2519 0.325982,0.6507 0.792728,0.9699 0.568597,0.3889 0.782928,0.3816 0.74392,-0.025 z m 39.771222,-0.3696 c 0.552266,-0.1598 0.652632,-0.252 0.652632,-0.5997 0,-0.5507 -0.474466,-0.8404 -0.860932,-0.5257 -0.172646,0.1406 -0.823908,1.1739 -0.823908,1.3072 0,0.059 0.51036,-0.031 1.032208,-0.1818 z m -30.998263,-1.8336 c 0.220634,-0.078 0.58167,-0.2178 0.802304,-0.3116 0.220633,-0.094 0.798292,-0.3104 1.283686,-0.4812 0.850481,-0.2994 2.218434,-0.9153 2.42813,-1.0932 0.0558,-0.047 0.615403,-0.3364 1.243572,-0.6424 1.933349,-0.9416 2.407446,-1.1859 2.697703,-1.3898 0.248884,-0.1748 1.157646,-0.6502 2.119704,-1.109 0.184929,-0.088 0.747153,-0.4222 1.249383,-0.7424 0.50223,-0.3202 0.930279,-0.5822 0.951219,-0.5822 0.02094,0 0.175662,-0.1128 0.34383,-0.2506 0.168168,-0.1379 0.516348,-0.3469 0.773736,-0.4645 0.257385,-0.1176 0.61239,-0.334 0.788898,-0.4809 0.176505,-0.1469 0.555594,-0.4323 0.842418,-0.6342 0.286824,-0.2018 0.623553,-0.4519 0.748287,-0.5557 0.317245,-0.2641 0.695859,-0.2573 0.695859,0.013 0,0.2472 -1.474194,1.5429 -1.755429,1.5429 -0.03862,0 -0.119772,0.063 -0.180333,0.1386 -0.06056,0.076 -0.327396,0.2409 -0.592965,0.3659 -0.265569,0.1249 -0.680439,0.3619 -0.92193,0.5266 -0.241494,0.1646 -0.511608,0.323 -0.600258,0.352 -0.08865,0.029 -0.26949,0.1371 -0.401871,0.2402 -0.215808,0.1681 -0.833136,0.5108 -3.209217,1.7812 -0.39714,0.2124 -1.047006,0.5809 -1.444147,0.8189 -0.39714,0.238 -1.047006,0.5946 -1.444146,0.7925 -2.557833,1.2742 -2.76795,1.3912 -2.76795,1.5408 0,0.4193 1.004193,0.2986 2.32316,-0.2793 0.811156,-0.3554 1.483974,-0.619 1.792552,-0.7023 0.167623,-0.045 0.655023,-0.305 1.083111,-0.5772 0.428089,-0.2723 1.103275,-0.6538 1.500415,-0.8479 0.39714,-0.1941 0.824382,-0.4271 0.949422,-0.5179 0.12504,-0.091 0.52218,-0.3233 0.882534,-0.5168 0.709647,-0.3811 2.584032,-1.5037 3.423138,-2.0502 0.286824,-0.1868 0.702015,-0.4507 0.92265,-0.5865 0.96045,-0.5911 1.082998,-0.7514 1.084062,-1.4185 0.0012,-0.6718 0.124764,-1.2157 0.427714,-1.8805 0.266486,-0.5847 0.293946,-0.5815 -0.719998,-0.085 -1.509258,0.7387 -1.602417,0.6893 -1.579035,-0.8378 0.01695,-1.1073 0.0021,-1.1333 -0.593211,-1.0297 -0.649182,0.113 -0.831963,0.2042 -0.745209,0.372 0.126837,0.2454 0.09382,0.4552 -0.100719,0.6402 -0.275988,0.2625 -1.481886,1.0918 -2.023857,1.3919 -0.573567,0.3176 -0.873309,0.4918 -1.887375,1.0971 -0.712278,0.425 -1.031004,0.6339 -1.524378,0.9989 -0.110316,0.082 -0.435249,0.2615 -0.722073,0.3998 -0.286824,0.1383 -0.671184,0.3512 -0.854133,0.4732 -0.481728,0.3211 -4.122711,2.1408 -4.283565,2.1408 -0.101127,0 -2.082382,0.7886 -2.524305,1.0047 -0.176508,0.086 -0.79027,0.3296 -1.363918,0.5405 -0.573647,0.211 -1.183409,0.4371 -1.355026,0.5025 -0.171616,0.065 -0.555706,0.172 -0.853532,0.2368 -0.297826,0.065 -0.753123,0.1896 -1.011771,0.2773 -0.961775,0.3259 -1.844829,0.5799 -2.195224,0.6315 -1.127906,0.1659 -1.333404,0.4613 -0.571316,0.8212 0.421898,0.1992 1.618465,0.2307 2.055579,0.054 0.13238,-0.053 0.475366,-0.1668 0.762189,-0.2518 0.638602,-0.1893 1.640548,-0.5456 1.965645,-0.699 0.403555,-0.1906 1.66294,-0.6806 2.045876,-0.7961 0.633818,-0.1913 2.167386,-0.8184 2.961608,-1.2111 0.423008,-0.2092 1.094039,-0.5269 1.491179,-0.7059 0.397141,-0.1791 0.902592,-0.415 1.123225,-0.5243 0.220634,-0.1094 0.491412,-0.225 0.601728,-0.2571 0.110318,-0.032 0.399147,-0.1737 0.641844,-0.315 0.242697,-0.1413 0.7662,-0.4319 1.163342,-0.646 0.39714,-0.2141 0.956746,-0.5171 1.24357,-0.6735 0.286824,-0.1563 1.026948,-0.5588 1.644723,-0.8943 0.617775,-0.3355 1.213485,-0.6735 1.323801,-0.7509 0.110319,-0.077 0.344991,-0.2081 0.521499,-0.2905 0.176508,-0.082 0.429231,-0.2298 0.561612,-0.3277 0.132381,-0.098 0.420663,-0.2854 0.640629,-0.4167 0.219966,-0.1313 0.591435,-0.4002 0.825486,-0.5976 0.453243,-0.3821 0.586017,-0.4265 0.731784,-0.2447 0.179067,0.2233 -0.307374,0.756 -1.172682,1.2842 -0.220035,0.1343 -0.555168,0.3605 -0.744735,0.5027 -0.18957,0.1421 -0.388542,0.2585 -0.442161,0.2585 -0.05362,0 -0.189285,0.075 -0.301479,0.166 -0.112197,0.091 -0.262365,0.1662 -0.333708,0.1662 -0.07134,0 -0.358704,0.1497 -0.63858,0.3326 -0.279873,0.183 -0.630999,0.3758 -0.780279,0.4283 -0.14928,0.053 -0.399351,0.2135 -0.555711,0.3575 -0.156363,0.1442 -0.463245,0.3469 -0.68196,0.4506 -0.218715,0.1037 -0.704544,0.3484 -1.079621,0.5436 -0.375077,0.1954 -0.775243,0.3784 -0.889256,0.4068 -0.114014,0.028 -0.450798,0.2206 -0.74841,0.4272 -0.297612,0.2065 -0.583416,0.3756 -0.635122,0.3758 -0.121082,2e-4 -0.998933,0.476 -1.248112,0.6764 -0.109821,0.088 -0.321739,0.1539 -0.497418,0.1539 -0.208065,0 -0.421498,0.081 -0.66651,0.2519 -0.198235,0.1384 -0.479848,0.2921 -0.625807,0.3414 -0.236715,0.08 -0.557115,0.2181 -1.188029,0.5117 -0.110316,0.051 -0.290834,0.1547 -0.401151,0.2297 -0.110317,0.075 -0.400074,0.1598 -0.643903,0.1884 -0.440842,0.052 -1.121166,0.3299 -1.121166,0.4584 0,0.037 -0.10908,0.067 -0.242402,0.067 -0.1561,0 -0.325779,0.083 -0.476592,0.2323 -0.154854,0.1536 -0.28081,0.2137 -0.3718,0.1776 -0.08572,-0.034 -0.204386,0.01 -0.314723,0.1176 -0.09741,0.095 -0.209137,0.1624 -0.248277,0.1504 -0.405996,-0.1248 -0.759408,0.4195 -0.452254,0.6965 0.302131,0.2725 1.322846,0.2832 2.065933,0.022 z m 10.435959,-1.3985 c 0.305583,-0.1079 1.19679,-0.519 1.980456,-0.9136 0.783669,-0.3946 1.454103,-0.7174 1.489854,-0.7174 0.03575,0 0.459624,-0.2472 0.941946,-0.5493 0.482319,-0.3021 0.996894,-0.6028 1.143498,-0.6681 0.146607,-0.065 0.435436,-0.242 0.641844,-0.3927 0.636138,-0.4644 1.806742,-1.356 2.060128,-1.5693 0.13238,-0.1115 0.352944,-0.2621 0.49014,-0.3349 0.137196,-0.073 0.28503,-0.2368 0.32852,-0.3646 0.212772,-0.6252 0.506626,-1.5682 0.505926,-1.6236 -0.0018,-0.1389 -0.357072,-0.046 -0.866004,0.2259 -0.296346,0.1584 -0.601994,0.3067 -0.679218,0.3296 -0.106652,0.031 -0.1404,0.1303 -0.1404,0.4108 0,0.4907 -0.915132,1.3427 -1.890398,1.7598 -0.173767,0.074 -0.370096,0.1841 -0.436285,0.2439 -0.11604,0.1049 -1.473726,0.8527 -3.191808,1.7581 -0.453759,0.2391 -0.923106,0.5066 -1.042995,0.5944 -0.119892,0.088 -0.717546,0.4139 -1.328124,0.7246 -1.346028,0.685 -1.849054,1.1139 -1.437177,1.2253 0.354252,0.096 0.921186,0.041 1.430097,-0.1389 z m -17.175313,-0.3068 c 0.974887,-0.2169 2.499953,-0.6752 3.048755,-0.9164 0.13238,-0.058 0.385106,-0.1457 0.561612,-0.1945 0.23916,-0.066 0.327454,-0.1364 0.34656,-0.2756 0.02615,-0.1907 0.20574,-0.2538 0.295284,-0.1038 0.08212,0.1375 0.403818,0.095 0.979172,-0.1301 0.299864,-0.1171 0.617414,-0.2324 0.705666,-0.2561 0.08825,-0.023 0.232668,-0.078 0.320922,-0.1201 0.179408,-0.086 1.821482,-0.6937 2.34206,-0.8663 0.184966,-0.061 0.685862,-0.283 1.113106,-0.4924 0.427242,-0.2095 0.953399,-0.4407 1.169238,-0.5138 0.21584,-0.073 0.412068,-0.1658 0.436066,-0.206 0.024,-0.04 0.12454,-0.073 0.223426,-0.073 0.09889,0 0.214563,-0.036 0.257058,-0.08 0.04249,-0.044 0.437829,-0.264 0.878523,-0.4888 1.269589,-0.6478 4.430644,-2.5144 5.475496,-3.2333 0.416793,-0.2867 0.871431,-0.5815 1.01031,-0.6551 0.138876,-0.074 0.367446,-0.2315 0.507927,-0.3508 0.140487,-0.1192 0.492918,-0.385 0.783183,-0.5906 0.464904,-0.3292 0.523293,-0.4 0.49029,-0.594 -0.02061,-0.1211 -0.0062,-0.4201 0.032,-0.6644 0.117918,-0.7542 -0.09724,-0.7506 -0.854487,0.014 -0.273324,0.276 -0.580182,0.5474 -0.681909,0.6031 -0.270951,0.1484 -0.913407,0.6374 -1.300989,0.9902 -0.185835,0.1691 -0.552306,0.4134 -0.814383,0.5427 -0.262074,0.1294 -0.730062,0.3895 -1.039971,0.578 -0.309912,0.1885 -0.923674,0.5359 -1.363918,0.772 -1.181938,0.6338 -1.692556,0.9392 -1.899341,1.1359 -0.101634,0.097 -0.437515,0.3117 -0.746403,0.4777 -0.862608,0.4636 -1.377709,0.7584 -1.62238,0.9285 -0.433962,0.3017 -2.766026,1.5283 -2.905823,1.5283 -0.04447,0 -0.367266,0.1495 -0.717313,0.3322 -0.350049,0.1828 -0.692714,0.3322 -0.761476,0.3322 -0.06876,0 -0.279728,0.054 -0.468808,0.1203 -0.189081,0.066 -0.462115,0.1416 -0.606742,0.1677 -0.329202,0.059 -0.90174,0.2865 -1.060844,0.4208 -0.135756,0.1146 -0.384886,0.1679 -1.363917,0.292 -0.375077,0.047 -1.024943,0.1946 -1.444147,0.3268 -0.419204,0.1323 -0.942707,0.2786 -1.163341,0.325 -1.55143,0.3269 -2.245621,0.4638 -2.792223,0.5506 -0.311134,0.049 -0.462851,0.2327 -0.317346,0.3834 0.357622,0.3702 1.232528,0.3653 2.949109,-0.017 z m 34.620563,-1.3249 c 0.08308,-0.046 0.26864,-0.2872 0.412362,-0.5359 0.194736,-0.3371 0.364416,-0.5095 0.666032,-0.6771 0.2226,-0.1236 0.711606,-0.4383 1.086684,-0.6992 0.375078,-0.2608 0.952738,-0.6356 1.283686,-0.8327 0.33095,-0.1971 0.764196,-0.4776 0.962766,-0.6233 0.19857,-0.1458 0.4874,-0.3308 0.641844,-0.4113 0.154442,-0.08 0.412364,-0.2532 0.573158,-0.384 0.32728,-0.2661 0.561574,-0.2955 0.900216,-0.1127 0.713092,0.385 0.83787,0.2133 0.789672,-1.0866 -0.03719,-1.003 -0.03719,-1.003 0.322468,-1.3704 0.197808,-0.202 0.43785,-0.5262 0.533426,-0.7204 0.194856,-0.3958 0.325786,-0.432 0.769506,-0.213 0.652396,0.3221 1.59726,-0.8466 1.12305,-1.3891 -0.285692,-0.3268 -0.563786,-0.2182 -1.193394,0.4661 -0.550662,0.5984 -0.593898,0.6276 -0.894618,0.6022 -0.467688,-0.039 -0.483702,-0.3157 -0.03059,-0.5272 0.187538,-0.088 0.508734,-0.3646 0.735128,-0.634 0.455884,-0.5426 0.780336,-0.6957 1.3029,-0.6146 0.870276,0.1351 0.795934,-0.8478 -0.09447,-1.2492 -0.611468,-0.2756 -1.162716,-0.051 -1.415778,0.5754 -0.14699,0.3642 -0.443954,0.5722 -0.788978,0.5524 -0.145698,-0.01 -0.304936,-0.011 -0.353856,-0.01 -0.0804,0.01 -0.593008,1.2222 -0.593008,1.4051 0,0.2343 -0.762986,1.9841 -1.075002,2.4654 -0.746772,1.1517 -2.74203,2.3324 -3.676622,2.1755 -0.144528,-0.024 -0.332512,-0.057 -0.417742,-0.072 -0.156804,-0.028 -0.176814,0 -0.510936,0.72 -0.360402,0.7762 -0.723302,1.378 -1.09917,1.8226 -0.752592,0.8904 -0.725312,1.799 0.04126,1.3744 z m -10.142608,-0.4426 c 0.835164,-0.4996 1.956696,-1.4348 3.021016,-2.5191 1.07718,-1.0974 1.129938,-1.2623 0.24794,-0.7751 -0.248076,0.137 -0.549236,0.2492 -0.669246,0.2492 -0.239238,0 -0.666294,0.2705 -1.163244,0.7369 -0.176508,0.1657 -0.48789,0.3888 -0.691958,0.4958 -0.20407,0.1071 -0.4929,0.3143 -0.641844,0.4607 -0.148942,0.1464 -0.534034,0.4621 -0.855754,0.7016 -0.957186,0.7128 -1.05204,0.8527 -0.678681,1.001 0.366609,0.1455 0.765243,0.048 1.431771,-0.351 z m -20.699018,-0.7752 c 0.216174,-0.122 0.501354,-0.2304 0.633734,-0.241 0.132381,-0.011 0.349004,-0.058 0.481383,-0.1055 0.132381,-0.047 0.525359,-0.1727 0.873287,-0.2781 0.427722,-0.1297 0.670338,-0.2512 0.749128,-0.3752 0.09056,-0.1424 0.167494,-0.1727 0.345221,-0.136 0.156177,0.033 0.300234,-0.01 0.454329,-0.1172 0.124101,-0.09 0.315898,-0.193 0.426214,-0.2278 0.182987,-0.058 0.569532,-0.2589 1.474248,-0.7674 0.182015,-0.1023 0.396492,-0.1864 0.476615,-0.1869 0.252293,0 0.441189,-0.157 0.494208,-0.4069 0.04791,-0.2258 0.07111,-0.2386 0.360843,-0.1984 0.254904,0.035 0.328426,0.012 0.415887,-0.133 0.05843,-0.097 0.18295,-0.1762 0.276702,-0.1762 0.09375,0 0.271789,-0.082 0.39564,-0.1834 0.123849,-0.1008 0.394049,-0.2783 0.600441,-0.3944 0.206392,-0.1162 0.577735,-0.37 0.825206,-0.5642 0.247472,-0.1941 0.47026,-0.353 0.495084,-0.353 0.17599,0 0.715027,-0.4724 0.811344,-0.711 0.08645,-0.2142 0.163978,-0.2856 0.30991,-0.2856 0.351669,0 2.455066,-2.1491 3.333364,-3.4058 1.262751,-1.8067 2.12319,-2.8542 3.570255,-4.3462 0.750153,-0.7735 1.526382,-1.5401 1.724953,-1.7035 0.19857,-0.1635 0.578514,-0.5042 0.84432,-0.7572 0.265806,-0.2529 0.664434,-0.6281 0.885842,-0.8337 2.487898,-2.3098 3.009658,-3.033 3.278304,-4.544 0.215152,-1.2101 0.303256,-1.8618 0.258016,-1.9087 -0.02484,-0.026 0.0099,-0.1821 0.07718,-0.3476 0.23055,-0.5672 0.07323,-2.3755 -0.357758,-4.1124 -0.157198,-0.6335 -0.273168,-0.9787 -0.714646,-2.127 -0.190512,-0.4955 -0.296172,-0.7302 -0.878672,-1.9518 -0.108912,-0.2284 -0.318582,-0.5461 -0.46593,-0.7059 -0.147348,-0.1599 -0.45996,-0.5408 -0.69469,-0.8464 -0.234732,-0.3056 -0.661454,-0.749 -0.948278,-0.9853 -0.286824,-0.2362 -0.702018,-0.6123 -0.92265,-0.8358 -0.397786,-0.4028 -1.517857,-1.2361 -1.66144,-1.2361 -0.04109,0 -0.225639,-0.1062 -0.410097,-0.236 -0.724806,-0.51 -1.229337,-0.6877 -1.436367,-0.5062 -0.21126,0.1853 -0.29592,0.094 1.287945,1.3816 0.146955,0.1194 0.562146,0.632 0.92265,1.1391 0.360507,0.5071 0.735888,1.0338 0.834183,1.1705 0.423442,0.5889 1.03282,2.172 1.262604,3.2801 0.47971,2.3133 -0.06885,5.7694 -1.103772,6.9541 -0.08892,0.1018 -0.27345,0.3905 -0.41007,0.6416 -0.671328,1.2336 -2.216406,2.537 -3.007419,2.537 -0.131547,0 -0.334095,0.037 -0.450105,0.083 -0.116013,0.045 -0.668946,0.1004 -1.22874,0.1217 -1.084242,0.041 -1.677744,0.1176 -2.695996,0.3468 -0.6485,0.146 -2.366312,0.076 -3.416441,-0.1382 -1.228299,-0.2512 -3.743503,0.1073 -5.035578,0.7177 -0.661146,0.3123 -1.222393,0.092 -1.222393,-0.4787 0,-0.7884 1.126704,-1.382 3.128986,-1.6482 1.686857,-0.2243 1.656906,-0.4746 -0.05909,-0.4938 -4.62794,-0.052 -4.776072,-0.1152 -4.849812,-2.076 -0.01507,-0.4008 -0.06741,-0.6064 -0.209665,-0.8234 -0.570574,-0.8704 0.374338,-1.5558 1.86924,-1.356 1.584463,0.2118 2.830183,0.048 3.194409,-0.4212 0.755529,-0.9724 1.46316,-1.5011 2.181028,-1.6295 0.872173,-0.1561 0.915126,-0.1538 2.263127,0.1202 0.931667,0.1893 1.078127,0.1665 1.537895,-0.2398 1.159956,-1.025 1.973922,-1.0618 2.19798,-0.099 0.198195,0.8512 0.212928,0.864 0.688902,0.5958 0.39813,-0.2243 1.122288,-0.3067 1.354437,-0.1541 0.05474,0.036 0.259137,0.405 0.454212,0.8199 0.51744,1.1005 0.685557,1.0941 1.01451,-0.039 0.470151,-1.6196 0.0189,-4.1421 -0.931869,-5.2091 -0.162825,-0.1827 -0.351099,-0.4185 -0.418383,-0.524 -0.118785,-0.1862 -1.061844,-0.9294 -1.179351,-0.9294 -0.03214,0 -0.424695,-0.184 -0.872346,-0.4089 -1.243035,-0.6244 -2.064492,-0.8834 -4.023124,-1.2681 -1.173438,-0.2305 -4.119967,-0.3361 -4.437804,-0.1591 -0.102077,0.057 -0.517269,0.1234 -0.92265,0.1478 -0.844481,0.051 -1.797824,0.2874 -3.344544,0.8295 -1.191119,0.4175 -1.773042,0.6649 -2.487144,1.0574 -0.110316,0.061 -0.297511,0.1623 -0.415988,0.2258 -0.308803,0.1655 -0.880056,0.5557 -1.445831,0.9875 -0.269321,0.2056 -0.546417,0.4111 -0.615767,0.4568 -0.788651,0.5195 -1.115872,0.7943 -1.679401,1.4106 -0.362949,0.397 -0.717942,0.84 -0.788873,0.9845 -0.07093,0.1445 -0.241734,0.3773 -0.37956,0.5173 -0.137826,0.1401 -0.340852,0.4194 -0.451169,0.6206 -0.110317,0.2013 -0.351505,0.5363 -0.535973,0.7445 -0.184469,0.2082 -0.4295363,0.5643 -0.544595,0.7913 -0.115058,0.2271 -0.36783,0.6694 -0.5617153,0.983 -0.7160894,1.1583 -1.2941294,2.6536 -1.4010347,3.6242 -0.0327,0.2969 -0.1154147,0.652 -0.1838053,0.789 -0.3785434,0.7586 -0.65919,2.6254 -0.6555,4.3604 0.00367,1.7393 0.1096466,3.648 0.2141246,3.8576 0.0443,0.089 0.09383,0.3504 0.1100607,0.5814 0.057207,0.8137 0.13025,1.1628 0.2901287,1.3867 0.1166793,0.1634 0.1478713,0.2969 0.112326,0.4809 -0.036613,0.1895 0.022147,0.4168 0.2295853,0.888 0.1533367,0.3484 0.2787947,0.6712 0.2787947,0.7176 0,0.1834 0.6537106,1.4813 0.8812833,1.7496 0.133068,0.1569 0.241942,0.3374 0.241942,0.4012 0,0.064 0.04902,0.1896 0.10893,0.2797 0.059913,0.09 0.150642,0.2967 0.2016247,0.4591 0.05098,0.1623 0.25469,0.4598 0.4526833,0.6609 0.197993,0.2012 0.359988,0.4139 0.359988,0.4727 0,0.1608 2.425017,2.7654 2.574767,2.7654 0.047,0 0.36024,0.2324 0.696092,0.5166 0.382366,0.3234 0.774346,0.5737 1.048556,0.6695 0.240852,0.084 0.553319,0.2442 0.694368,0.3556 0.141051,0.1113 0.336024,0.2025 0.433276,0.2025 0.09725,0 0.326273,0.075 0.508937,0.166 0.182663,0.091 0.378617,0.1662 0.435452,0.1662 0.05683,0 0.221547,0.075 0.366025,0.1658 0.355977,0.2247 0.685063,0.2089 1.153331,-0.055 z m 24.17901,-3.1818 c 0.26121,-0.1836 0.506702,-0.3339 0.545534,-0.3339 0.03883,0 0.278544,-0.2135 0.532686,-0.4745 0.462076,-0.4746 0.462076,-0.4746 0.607464,-0.275 0.252018,0.3458 1.773892,-1.4298 2.07151,-2.417 0.640272,-2.1238 0.322232,-3.7996 -1.405632,-7.4065 -0.46263,-0.9657 -0.91068,-1.9438 -0.995664,-2.1735 -0.08498,-0.2298 -0.186648,-0.4925 -0.225922,-0.5838 -0.177074,-0.412 -0.258056,-0.8051 -0.323138,-1.5687 -0.10594,-1.2429 -0.265168,-1.3146 -0.891004,-0.401 -0.279464,0.4079 -1.829018,1.9752 -2.52219,2.551 -0.219962,0.1827 -0.58232,0.5191 -0.805238,0.7475 -0.395904,0.4057 -1.27102,1.2308 -2.088265,1.969 -1.291077,1.1662 -2.278155,2.2979 -2.228469,2.5551 0.02673,0.1384 0.01701,0.2547 -0.0216,0.2585 -0.352914,0.035 -0.444246,0.074 -0.585138,0.2488 -0.08893,0.1106 -0.162885,0.2292 -0.164355,0.2636 -0.0015,0.035 -0.256248,0.3838 -0.566181,0.7762 -0.309933,0.3926 -0.613326,0.8134 -0.674211,0.9353 -0.06089,0.1219 -0.321783,0.4267 -0.579771,0.6773 -0.666822,0.6478 -1.012434,1.0892 -0.92427,1.1804 0.08617,0.089 1.284837,-0.5086 1.461417,-0.7289 0.0631,-0.079 0.262965,-0.2089 0.444135,-0.2893 0.18117,-0.08 0.644343,-0.4397 1.02927,-0.7984 0.85614,-0.798 0.956439,-0.8532 1.175886,-0.6476 0.20031,0.1876 0.210963,0.1742 0.56454,-0.7107 0.302277,-0.7565 0.678966,-1.2712 0.7635,-1.0431 0.03106,0.084 -3e-4,0.2449 -0.07248,0.3712 -0.143913,0.2522 -0.698973,1.9284 -0.698973,2.1108 0,0.2848 0.215847,0.3319 0.822387,0.1793 0.945534,-0.2379 1.25251,-0.3787 1.690804,-0.7757 0.228372,-0.2068 0.494616,-0.4483 0.591656,-0.5367 0.09882,-0.09 0.232408,-0.1385 0.30367,-0.1101 0.274722,0.1091 -0.381196,0.9136 -1.159656,1.4223 -0.637741,0.4168 -1.076221,2.0451 -0.601495,2.2337 0.282667,0.1122 1.509015,-0.6115 2.012205,-1.1875 0.303436,-0.3474 0.742132,-0.4071 0.543238,-0.074 -0.02619,0.044 0.03429,0.17 0.134424,0.2804 0.165822,0.1827 0.170996,0.2136 0.05801,0.3468 -0.06823,0.08 -0.149559,0.2328 -0.180738,0.3386 -0.03117,0.1058 -0.163737,0.3186 -0.294582,0.4728 -0.27636,0.3258 -0.429714,0.7802 -0.306405,0.9078 0.05561,0.057 0.367392,-0.214 0.973314,-0.8479 0.84873,-0.8879 1.269987,-1.1627 1.269987,-0.8283 0,0.1406 -0.797757,0.985 -1.244433,1.3171 -0.198096,0.1473 -0.360174,0.2918 -0.360174,0.3211 0,0.1543 -0.346911,0.4195 -0.488076,0.3731 -0.102552,-0.034 -0.171858,-0.01 -0.205968,0.088 -0.208872,0.5635 1.387551,-0.098 2.093028,-0.867 0.51867,-0.5654 0.988938,0.017 0.539694,0.6689 -1.042314,1.5117 -0.827766,2.3375 0.385653,1.4845 z m -0.265084,-0.3062 c -0.113352,-0.1174 -0.03843,-0.2656 0.394774,-0.7814 0.246542,-0.2935 0.498872,-0.6338 0.560732,-0.7562 0.06186,-0.1224 0.187794,-0.2472 0.279858,-0.2775 0.423198,-0.139 0.277062,0.2196 -0.460128,1.1291 -0.590106,0.7282 -0.667968,0.797 -0.775236,0.686 z m 0.270204,-3.0748 c -0.347078,-0.2517 -0.0742,-2.6873 0.356232,-3.1797 0.147478,-0.1687 0.159274,-0.3345 0.02379,-0.3345 -0.104694,0 -1.139889,0.3788 -1.349562,0.4938 -1.373523,0.7535 -1.764051,-1.2198 -0.509337,-2.5738 0.255366,-0.2755 0.349953,-0.4955 0.212475,-0.4942 -0.09875,0 -1.243644,0.41 -1.516446,0.5418 -0.531924,0.2569 -0.750063,0.096 -0.750063,-0.5518 0,-0.8252 0.728622,-2.3161 1.131918,-2.3161 0.250926,0 0.235707,0.1343 -0.07178,0.6332 -0.736605,1.1953 -0.771345,1.8705 -0.08706,1.6919 0.703128,-0.1836 1.398246,-0.5685 2.048349,-1.1343 0.441042,-0.3839 0.588933,-0.441 0.588933,-0.2277 0,0.1578 -0.295872,0.6122 -0.498156,0.765 -0.07903,0.06 -0.143688,0.1998 -0.143688,0.3114 0,0.112 -0.158154,0.4167 -0.353172,0.6804 -0.712164,0.9632 -1.068498,2.2036 -0.663318,2.3088 0.662091,0.172 2.60544,-1.1308 2.619108,-1.7559 0.003,-0.1354 0.29982,-0.3887 0.352371,-0.3007 0.1749,0.293 -0.0015,1.4994 -0.264438,1.8095 -0.744777,0.8781 -1.107417,3.1879 -0.467493,2.9776 0.453657,-0.1491 1.453092,-1.0319 1.719195,-1.5187 0.424836,-0.7772 0.426903,-0.7796 0.560052,-0.6652 0.449052,0.3858 -0.950073,2.1973 -1.948062,2.5223 -0.236895,0.077 -0.450849,0.1739 -0.475452,0.2151 -0.112362,0.1882 -0.33453,0.2322 -0.514407,0.1018 z m -4.529202,-0.08 c -0.07697,-0.2077 1.394502,-1.9396 1.647904,-1.9396 0.265472,0 0.14162,0.3071 -0.297796,0.7385 -0.260928,0.2561 -0.624966,0.6393 -0.808964,0.8513 -0.4159,0.4794 -0.478182,0.5196 -0.541144,0.3498 z m 5.380288,-1.8151 c -0.122644,-0.1269 -0.104814,-0.1734 0.249152,-0.6489 0.209688,-0.2816 0.419562,-0.6246 0.466384,-0.7622 0.271634,-0.7978 0.811602,-1.2441 0.786482,-0.6501 -0.03115,0.7365 -1.213842,2.3595 -1.502018,2.0612 z m -6.690619,-0.434 c -0.121431,-0.045 -0.135081,-0.355 -0.0156,-0.355 0.04658,0 0.312846,-0.2336 0.591705,-0.5191 1.06911,-1.0946 1.651636,-1.5052 1.649296,-1.1628 -0.0018,0.2734 -2.013193,2.1144 -2.225401,2.0369 z m 4.793767,-2.5115 c 0,-0.09 0.06653,-0.2 0.147834,-0.2451 0.15458,-0.086 1.08405,-1.1554 1.302114,-1.4987 0.24416,-0.3843 0.435042,-0.1605 0.22598,0.265 -0.396896,0.8078 -1.675928,1.9363 -1.675928,1.4788 z m -0.882534,-2.4798 c 0,-0.083 0.189542,-0.3558 0.421208,-0.6058 0.231666,-0.2499 0.58914,-0.6535 0.794388,-0.8968 0.387028,-0.4588 0.549472,-0.4916 0.549472,-0.1109 0,0.1652 -0.18268,0.4078 -0.746758,0.9917 -0.728306,0.754 -1.01831,0.9311 -1.01831,0.6218 z m 16.687446,4.3164 c 0.156408,-0.2444 0.391998,-0.5021 0.523526,-0.5726 0.391234,-0.2099 0.453076,-0.3787 0.191742,-0.5235 -0.339422,-0.188 -0.809718,0.2184 -1.22523,1.0589 -0.339318,0.6864 0.07524,0.7166 0.509962,0.037 z m -35.282432,-10.0984 c 1.6434,-0.6614 2.654486,-0.7889 4.67501,-0.5896 2.151166,0.2121 2.96415,0.233 3.38074,0.087 0.638425,-0.2243 1.943689,-0.3884 2.6929,-0.3383 2.261565,0.151 4.892952,-1.9374 5.277804,-4.1886 0.05076,-0.2969 0.178614,-0.6707 0.284124,-0.8305 1.082196,-1.6399 0.480178,-5.8662 -1.153518,-8.0979 -0.544956,-0.7445 -1.587678,-1.9561 -1.881342,-2.1862 -0.07942,-0.062 -0.339117,-0.3059 -0.577095,-0.5415 -0.445053,-0.4407 -0.559206,-0.5107 -1.926102,-1.1822 -0.77832,-0.3824 -0.832287,-0.3961 -1.805184,-0.4595 -0.551583,-0.036 -1.469967,-0.1238 -2.040849,-0.1953 -1.162068,-0.1456 -1.257043,-0.1168 -0.961768,0.2917 0.445194,0.6158 0.533452,0.8904 0.503412,1.5658 -0.02805,0.6308 -0.02805,0.6308 0.520954,0.612 0.89259,-0.03 1.41378,-0.5013 1.30143,-1.1757 -0.08666,-0.5202 -0.08758,-0.6316 -0.0056,-0.6743 0.36165,-0.1882 0.491907,1.2729 0.158781,1.7811 -0.374891,0.5718 -0.09377,0.8205 0.937911,0.8297 0.955479,0.01 1.396779,-0.5609 1.199799,-1.5482 -0.119226,-0.5976 -0.01794,-0.8166 0.187494,-0.4053 0.352656,0.7059 0.202839,1.7282 -0.315084,2.15 -0.348645,0.2838 -0.115329,0.5883 0.580362,0.7573 0.869823,0.2113 1.421997,-0.1466 1.648941,-1.0688 0.183762,-0.7467 0.448908,-0.5643 0.338037,0.2325 -0.07207,0.518 -0.362157,0.9565 -0.757596,1.1454 -0.436788,0.2086 0.323055,1.4419 0.888357,1.4419 0.510354,0 0.977841,-0.4669 1.144431,-1.1429 0.108693,-0.4411 0.257703,-0.5438 0.333765,-0.2301 0.132948,0.5484 -0.378018,1.5143 -0.892617,1.6874 -0.791676,0.2663 -0.448368,1.1619 0.45579,1.189 0.614181,0.019 0.814173,-0.136 1.240701,-0.9586 0.177012,-0.3414 0.37402,-0.1982 0.297498,0.2161 -0.11787,0.6384 -0.824235,1.2083 -1.519314,1.226 -0.417384,0.011 -0.487728,0.1909 -0.265866,0.6812 0.375156,0.8292 1.438614,0.9905 1.884616,0.2858 0.18953,-0.2994 0.383222,-0.1493 0.264026,0.2047 -0.135812,0.4033 -0.850209,0.7159 -1.379643,0.6036 -0.689412,-0.1462 -0.749196,-0.028 -0.403323,0.7976 0.363954,0.8688 1.421254,1.1698 1.745292,0.497 0.124926,-0.2594 0.402642,-0.2634 0.437844,-0.01 0.10807,0.7893 -1.197798,1.0386 -2.10339,0.4015 -0.45033,-0.3168 -0.510294,-0.2879 -0.814011,0.3926 -0.464907,1.0417 -1.241667,1.5176 -1.307388,0.801 -0.06473,-0.7057 -0.655413,-1.3027 -0.655413,-0.6623 0,0.83 -0.543222,1.4346 -1.033947,1.1509 -0.347835,-0.2011 -0.322461,-0.5503 0.06781,-0.9332 0.851406,-0.8352 0.19755,-1.411 -0.778203,-0.6853 -0.744717,0.5538 -1.063176,0.619 -1.177089,0.241 -0.0612,-0.2031 -0.304692,-0.3023 -1.09009,-0.4441 -0.286824,-0.052 -0.80409,-0.1678 -1.149482,-0.2579 -2.174334,-0.5673 -3.135474,-0.3219 -4.406118,1.1247 -0.784908,0.8936 -1.24059,0.9813 -3.911588,0.7529 -0.600622,-0.051 -1.304101,0.1579 -1.349396,0.4014 -0.0398,0.2139 0.213766,0.2677 0.483762,0.1026 0.456597,-0.2792 0.56584,0.016 0.189406,0.5125 -0.433368,0.5711 -0.319954,1.7532 0.1906,1.9865 0.286958,0.1312 4.119791,0.1954 5.379683,0.09 1.192469,-0.1 2.078376,0.2312 2.186432,0.8164 0.06674,0.3614 -0.04014,0.4118 -0.879888,0.4156 -0.436884,0 -1.034117,0.064 -1.346659,0.1407 -0.308887,0.075 -0.958754,0.1959 -1.444147,0.2678 -1.45221,0.2151 -2.469849,0.6437 -2.342707,0.9867 0.06864,0.1851 0.203221,0.1742 0.796683,-0.065 z m 5.279934,-0.8317 c -0.129413,-0.1614 -0.04148,-0.4157 0.200508,-0.5799 0.365047,-0.2476 0.273594,-0.435 -0.594762,-1.2189 -0.472766,-0.4268 0.225367,-0.5266 0.712896,-0.1019 0.245259,0.2136 0.261646,0.2165 0.477656,0.084 0.262882,-0.1607 0.655936,0.045 0.881293,0.4601 0.244885,0.4517 -0.269369,1.1863 -0.691158,0.9873 -0.182613,-0.086 -0.235851,-0.066 -0.516612,0.1968 -0.360079,0.3367 -0.3429,0.3304 -0.469821,0.1721 z m 1.154414,-0.7574 c 0.200818,-0.2079 0.15202,-0.4966 -0.12469,-0.7376 -0.305084,-0.2657 -0.347144,-0.2364 -0.239472,0.1673 0.04569,0.1713 0.06327,0.3446 0.03906,0.3852 -0.11628,0.1948 0.162462,0.3534 0.325106,0.1851 z m -5.233631,-1.6051 c -0.670533,-0.2398 -1.058725,-0.7555 -1.058725,-1.4065 0,-0.3121 0.31145,-0.3992 0.407534,-0.1138 0.310866,0.9231 1.522998,1.7001 1.368646,0.8773 -0.154098,-0.8215 -0.06273,-1.4461 0.235714,-1.6115 0.200727,-0.1112 0.248184,0.013 0.110106,0.2888 -0.220932,0.4408 -0.154118,0.9221 0.164564,1.1853 0.778432,0.643 -0.08222,1.19 -1.227839,0.7804 z m 2.2408,-0.5802 c -0.561379,-0.5429 -0.531877,-1.5116 0.06025,-1.9782 0.336143,-0.2649 0.469792,0.102 0.16107,0.4422 -0.478903,0.5277 -0.183729,1.3601 0.482293,1.3601 0.353391,0 0.474671,0.1094 0.326387,0.2944 -0.175988,0.2195 -0.748592,0.1536 -1.03,-0.1185 z m 3.249525,-0.6294 c -0.711802,-0.3701 -0.711802,-0.3701 -1.019742,-0.2074 -0.75859,0.4006 -1.15675,0.1707 -1.15675,-0.668 0,-0.6164 -0.109839,-0.8261 -0.436545,-0.8333 -0.763245,-0.017 -0.523862,-1.1839 0.265824,-1.296 0.725712,-0.103 1.380777,0.3652 2.398534,1.7141 0.501295,0.6644 1.528647,1.0105 2.093742,0.7054 0.284199,-0.1534 0.452154,-0.1586 0.452154,-0.014 0,0.1143 -0.326418,0.4713 -0.430881,0.4713 -0.03273,0 -0.277806,0.1121 -0.544617,0.2491 -0.637157,0.3273 -0.779405,0.3167 -1.621719,-0.1213 z m -0.656704,-1.1168 c 0.242431,-0.4061 -1.095065,-1.3703 -1.614509,-1.164 -0.229404,0.091 0.05421,0.4901 0.349323,0.4914 0.05178,3e-4 0.251738,0.125 0.444354,0.2772 0.578668,0.4572 0.73806,0.534 0.820832,0.3954 z m 25.18888,5.092 c 0.04989,-0.1346 -0.02973,-0.7622 -0.230802,-1.819 -0.06083,-0.3198 -0.132264,-0.7496 -0.158732,-0.9552 -0.02646,-0.2055 -0.121398,-0.6167 -0.210958,-0.9136 -0.08956,-0.2969 -0.23598,-0.7828 -0.325382,-1.0797 -0.351612,-1.1678 -0.896502,-2.3428 -1.309558,-2.8239 -0.210186,-0.2448 -0.80708,-1.3174 -0.886776,-1.5934 -0.03053,-0.1058 -0.148902,-0.3605 -0.263064,-0.566 -0.114162,-0.2056 -0.33606,-0.6175 -0.49311,-0.9153 -1.231508,-2.3356 -2.414658,-3.901 -4.216832,-5.5791 -1.186996,-1.1053 -1.47463,-1.3365 -2.738704,-2.2013 -0.347036,-0.2374 -0.721232,-0.5033 -0.831548,-0.591 -0.11032,-0.088 -0.49933,-0.3147 -0.864468,-0.5047 -0.36514,-0.1899 -0.892966,-0.5076 -1.172946,-0.7061 -1.072552,-0.76013 -1.424982,-0.78388 -1.556706,-0.1049 -0.131346,0.6771 -0.514687,1.393 -1.058923,1.9778 -0.61839,0.6645 -0.614481,0.6788 0.220311,0.8088 1.076688,0.1675 2.898886,0.7328 3.492396,1.0833 0.142108,0.084 0.456946,0.2186 0.699642,0.2992 0.788206,0.262 3.064236,1.9598 3.754908,2.801 0.19627,0.2391 0.45261,0.5281 0.569646,0.6423 0.11704,0.1142 0.308524,0.3418 0.425526,0.5058 0.117004,0.1639 0.446244,0.5564 0.73165,0.872 0.285404,0.3157 0.6726,0.7609 0.860432,0.9893 0.187836,0.2284 0.407652,0.4637 0.488488,0.5229 0.08083,0.059 0.245016,0.2834 0.364854,0.4983 0.119834,0.2149 0.508496,0.8468 0.86369,1.4042 1.222732,1.9188 1.233966,1.9378 1.488016,2.5164 0.09027,0.2055 0.198294,0.4298 0.24005,0.4983 0.04176,0.068 0.199398,0.3862 0.350308,0.706 0.150908,0.3197 0.422556,0.8803 0.603662,1.2458 0.181104,0.3654 0.329572,0.7601 0.329926,0.8771 3e-4,0.1169 0.08566,0.4372 0.189564,0.7117 0.103908,0.2745 0.214458,0.64 0.245666,0.8122 0.108096,0.5964 0.293902,0.8664 0.399774,0.5808 z m -27.67663,-1.4366 c 0.05329,-0.089 -0.179174,-0.195 -0.28285,-0.1286 -0.04015,0.025 -0.07299,0.082 -0.07299,0.1248 0,0.1 0.296797,0.1027 0.355841,0.01 z m 5.902132,-5.9702 c 0,-0.805 -0.544569,-1.0199 -1.310527,-0.517 -0.644061,0.4228 -0.622617,0.5242 0.156301,0.739 1.001046,0.276 1.154226,0.2465 1.154226,-0.222 z m 2.671644,-10.2855 c 0.835803,-0.4372 0.824304,-1.2777 -0.01749,-1.2777 -0.602358,0 -0.762784,0.2238 -0.327486,0.4568 0.286014,0.1532 0.320568,0.4393 0.08023,0.6645 -0.312234,0.2925 -0.163506,0.3804 0.264732,0.1564 z m 1.865535,-0.4496 c 0.233667,-0.1384 0.496725,-0.3346 0.584577,-0.436 0.829611,-0.9578 0.949377,-1.1862 1.02741,-1.95902 0.06173,-0.61143 -0.01239,-0.74652 -0.501882,-0.9146 -0.87312,-0.29982 -0.290544,-1.37868 0.885652,-1.64012 0.663812,-0.14756 0.714542,-0.14298 0.953294,0.0861 0.285502,0.27391 0.6153,0.33354 1.03254,0.1867 1.014858,-0.35719 1.1104,-0.57468 0.398022,-0.90605 -1.958672,-0.91112 -3.246516,-1.03954 -4.44426,-0.44316 -0.735831,0.36638 -0.848331,0.36653 -2.346426,0.003 -1.807215,-0.43833 -2.102628,-0.47312 -2.774652,-0.32678 -0.739792,0.1611 -0.715842,0.13795 -0.712528,0.68865 0.0071,1.17443 0.899932,1.76965 3.126142,2.08402 2.018517,0.28503 3.030597,0.82373 3.260601,1.73546 0.09077,0.3599 -0.04863,0.2894 -0.561126,-0.2836 -0.62754,-0.70171 -1.221708,-0.9453 -2.305629,-0.9453 -0.354153,0 -0.893166,-0.04 -1.197804,-0.089 -0.55389,-0.089 -0.55389,-0.089 -0.827208,0.19398 -0.505509,0.52331 -1.182507,0.58465 -2.07949,0.18841 -0.190431,-0.0841 -0.181092,0.0786 0.02141,0.37299 0.089,0.12942 0.296592,0.27982 0.461326,0.33432 0.572335,0.1893 0.529738,0.433 -0.06135,0.3509 -0.176819,-0.024 -0.323017,0 -0.35555,0.051 -0.290299,0.4862 -1.971311,-0.77121 -1.971311,-1.4746 0,-0.22448 0.212872,-0.23254 0.280902,-0.0107 0.07194,0.23467 0.805828,0.9963 0.959978,0.9963 0.205236,0 0.224194,-0.20214 0.05151,-0.54927 -0.0883,-0.17752 -0.221036,-0.57504 -0.294958,-0.88338 -0.155053,-0.64675 -0.227772,-0.67938 -0.682762,-0.30633 -0.170584,0.13986 -0.410452,0.28621 -0.533044,0.32522 -1.635599,0.52044 -2.429228,0.93539 -2.429228,1.27006 0,0.4914 0.44648,0.7988 0.673268,0.4636 0.14389,-0.2127 0.231474,-0.1681 0.907501,0.4621 1.030953,0.9611 5.226531,1.6338 5.334019,0.8553 0.02088,-0.1513 0.09667,-0.1927 0.447872,-0.2448 0.232504,-0.034 0.556324,-0.1205 0.719602,-0.1911 1.292216,-0.5589 2.18723,-0.202 2.18723,0.8723 0,0.4241 0.161364,0.4416 0.76635,0.083 z m -8.441041,-1.8854 c -0.409911,-0.3127 -0.797478,-0.87148 -0.708176,-1.02107 0.08547,-0.14316 0.173507,-0.0881 0.382851,0.23936 0.112645,0.17621 0.370104,0.42851 0.572131,0.56061 0.2077,0.1359 0.367384,0.3034 0.367465,0.3856 2.57e-4,0.2211 -0.167637,0.1762 -0.614271,-0.1645 z m 3.457372,-1.1831 c 0.11319,-0.0445 0.205797,-0.13546 0.205797,-0.20204 0,-0.1993 -0.301368,-0.23676 -0.684909,-0.0851 -0.466189,0.1843 -1.03489,-0.40008 -0.789438,-0.81122 0.0656,-0.10988 -0.12847,-0.31561 -0.297722,-0.31561 -0.389447,0 -0.318736,0.61883 0.12463,1.09069 0.232446,0.24738 0.342726,0.30252 0.612867,0.30637 0.18118,0.003 0.349681,0.0257 0.374446,0.0513 0.06641,0.0688 0.222252,0.0569 0.454329,-0.0344 z m 9.031144,-0.66138 c 0.659612,-0.19154 1.696388,-0.5803 1.816586,-0.68118 0.109116,-0.0916 1.272468,-0.53093 1.819636,-0.68721 1.018256,-0.29083 0.431586,-0.62136 -0.667698,-0.37619 -0.19857,0.0443 -0.538876,0.0966 -0.756238,0.11614 -0.774996,0.0698 -1.00826,0.13809 -1.1027,0.32269 -0.31383,0.61341 -1.367634,1.07139 -1.849744,0.80389 -0.675852,-0.37498 -1.506294,-0.26172 -1.506294,0.20544 0,0.33803 0.162136,0.38708 1.444146,0.43692 0.154444,0.006 0.515482,-0.0572 0.802306,-0.1405 z m -10.40044,-1.34354 c 0.131778,-0.19476 0.09274,-0.40574 -0.07509,-0.40574 -0.135354,0 -0.435809,0.32573 -0.435809,0.47247 0,0.17533 0.380769,0.1256 0.510897,-0.0667 z m 5.955834,-1.36372 c 0.649551,-0.47 1.002285,-0.54924 2.55919,-0.5749 1.67616,-0.0276 1.80656,-0.0974 3.154694,-1.68954 0.374856,-0.44268 0.476328,-0.61106 0.38913,-0.6457 -0.16472,-0.0655 -1.209242,0.45714 -1.73864,0.86986 -0.674022,0.52544 -1.166346,0.6873 -2.286568,0.75168 -0.772152,0.0444 -1.026066,0.0914 -1.282497,0.23735 -0.175854,0.10011 -0.359007,0.18202 -0.407013,0.18202 -0.188001,0 -1.238898,0.76734 -1.238898,0.90461 0,0.15034 0.146196,0.34122 0.261339,0.34122 0.03783,0 0.303003,-0.16947 0.589263,-0.3766 z"
       id="path3058"
       inkscape:connector-curvature="0"
       inkscape:export-xdpi="90"
       inkscape:export-ydpi="90" />
  </g>
</svg>
